<svg width="96" height="105" viewBox="0 0 96 105" fill="none" xmlns="http://www.w3.org/2000/svg">
<path d="M49.9395 58.7428C49.3259 61.4836 48.7123 64.4084 48.1396 67.4968C47.1579 67.4968 45.3784 67.7218 42.8013 68.1922C39.5084 68.7853 37.0745 69.0921 35.4791 69.0921C31.5726 69.0921 28.1365 68.3149 25.1708 66.7809C22.2255 65.2265 19.9143 63.0175 18.278 60.1541C16.6213 57.2702 15.8032 54.0795 15.8032 50.5616C15.8032 47.0846 16.6827 43.8939 18.4212 40.9691C20.1597 38.0443 22.5528 35.774 25.6207 34.1377C28.6682 32.5015 32.1248 31.6833 35.9495 31.6833C37.5653 31.6833 39.7334 31.847 42.4332 32.1947C44.5399 32.4606 46.0738 32.6037 47.0351 32.6037C47.2601 35.0172 47.6487 37.9216 48.2214 41.3577C48.2214 41.6236 47.9555 41.7667 47.4033 41.7667C47.0556 41.7667 46.8511 41.6236 46.7897 41.3577C46.1761 39.026 44.8467 37.1034 42.8013 35.5899C40.756 34.0764 38.4039 33.3196 35.745 33.3196C31.7158 33.3196 28.3205 34.9763 25.5798 38.3102C22.8391 41.644 21.4687 45.7142 21.4687 50.5411C21.4687 55.2249 22.8186 59.2133 25.5389 62.5062C28.2592 65.7992 31.5726 67.4354 35.4791 67.4354C41.6151 67.4354 45.9511 64.5311 48.5078 58.7224C48.6305 58.4565 48.8555 58.3133 49.2032 58.3133C49.694 58.3338 49.9395 58.4769 49.9395 58.7428Z" fill="#C9C9C9"/>
<path d="M78.6353 67.5375C78.6353 68.0079 78.4921 68.2534 78.2262 68.2534C77.0399 68.2534 75.7105 68.192 74.1969 68.0898C72.9084 67.9875 71.8039 67.9261 70.904 67.9261C69.8609 67.9261 68.5519 67.9875 67.0179 68.0898C65.3816 68.192 63.9908 68.2534 62.8455 68.2534C62.5796 68.2534 62.4364 68.0079 62.4364 67.5375C62.4364 67.0671 62.5387 66.8217 62.7432 66.8217C64.2772 66.7603 65.3612 66.5558 66.0361 66.2081C66.7111 65.8808 67.0383 65.349 67.0383 64.6332C67.0383 64.1832 66.8747 63.4674 66.527 62.4856L63.6022 53.8544H53.028L50.0827 61.8311C49.7145 62.8947 49.51 63.7332 49.51 64.3059C49.51 65.8195 50.9008 66.658 53.6824 66.7808C53.887 66.7808 53.9892 67.0262 53.9892 67.4966C53.9892 67.967 53.8461 68.2125 53.5802 68.2125C52.5575 68.2125 51.4122 68.1511 50.1645 68.0489C48.9782 67.9466 47.9351 67.8852 46.9943 67.8852C46.258 67.8852 45.3376 67.9466 44.2127 68.0489C43.0468 68.1511 42.0446 68.2125 41.2265 68.2125C40.9606 68.2125 40.8379 68.008 40.8379 67.5784C40.8379 67.108 41.0424 66.8421 41.431 66.8012C42.8627 66.6581 43.9877 66.2694 44.8262 65.6149C45.6648 64.9604 46.5239 63.631 47.4238 61.6266L59.4502 32.0923C59.5525 31.8264 58.4276 31.99 58.7957 31.99C59.2048 31.99 59.8797 32.5013 59.982 32.7468L61.741 34.3012L71.5585 61.6675C72.1516 63.3242 72.9697 64.5514 73.9924 65.349C75.0151 66.1467 76.3854 66.6376 78.1035 66.8421C78.4716 66.883 78.6353 67.1285 78.6353 67.5375ZM63.0295 52.259L58.5094 39.1281L53.6415 52.259H63.0295Z" fill="#C9C9C9"/>
<path d="M58.5093 39.1282L60.5342 44.9778C61.6591 42.8711 62.2114 40.4168 62.2114 37.6351C62.2114 34.4035 60.9024 31.6219 58.2639 29.2698C55.6255 26.9177 52.1075 25.3019 47.6692 24.4429C50.7985 23.7475 53.4165 22.2953 55.5436 20.0864C57.6708 17.8774 58.7343 15.5049 58.7343 12.9482C58.7343 9.30757 57.3026 6.36232 54.4392 4.13293C51.5553 1.90354 47.7715 0.799072 43.1081 0.799072C41.431 0.799072 39.2834 0.880885 36.6654 1.02406C34.1906 1.16723 32.2066 1.24904 30.6726 1.24904C29.1591 1.24904 27.2365 1.16723 24.9049 1.02406C22.4914 0.880885 20.4461 0.799072 18.7689 0.799072C18.3599 0.799072 18.1758 1.14678 18.1758 1.82173C18.1758 2.51713 18.3803 2.84438 18.7689 2.84438C20.896 3.08982 22.5118 3.41707 23.5959 3.84659C24.7003 4.25565 25.4571 4.82834 25.9071 5.52374C26.3366 6.2396 26.5616 7.46679 26.5616 9.22576V44.5074C26.5616 46.839 26.0093 48.373 24.9253 49.1502C23.8413 49.9275 21.7755 50.4797 18.7689 50.8479C18.3599 50.8888 18.1758 51.2365 18.1758 51.8501C18.1758 52.5455 18.3803 52.8932 18.7689 52.8932C20.4461 52.8932 22.6141 52.8114 25.2935 52.6682C27.8706 52.525 29.9159 52.4432 31.4294 52.4432C32.9429 52.4432 35.1723 52.525 38.0971 52.6682C41.1651 52.8114 43.5377 52.8932 45.2148 52.8932C48.61 52.8932 51.5348 52.2796 54.0506 51.0524L58.5093 39.1282ZM34.211 7.36452C34.211 4.66471 35.7859 3.31481 38.9357 3.31481H40.4288C43.8445 3.31481 46.3806 4.09202 47.9964 5.64646C49.6122 7.2009 50.4304 9.63482 50.4304 12.9278C50.4304 16.7321 49.5713 19.4728 47.8533 21.1704C46.1352 22.868 43.3945 23.7066 39.5902 23.7066H34.1906V7.36452H34.211ZM42.8218 50.4797C39.672 50.4797 37.4426 50.0706 36.1541 49.2321C34.8451 48.3935 34.211 46.839 34.211 44.5688V26.0996H42.3718C45.992 26.0996 48.835 27.1222 50.8803 29.1676C52.9256 31.2129 53.9483 34.0558 53.9483 37.6556C53.9483 41.4803 52.9052 44.5892 50.8394 46.9413C48.7737 49.3139 46.0943 50.4797 42.8218 50.4797Z" fill="#C9C9C9"/>
<path d="M12.8581 87.3772C12.8581 88.7067 12.4081 89.7907 11.5082 90.5883C10.6082 91.386 9.42194 91.7951 7.94932 91.7951C7.45845 91.7951 6.78349 91.7746 5.88356 91.7337C5.04498 91.6928 4.39048 91.6724 3.96096 91.6724C3.51099 91.6724 2.91785 91.6928 2.18154 91.7337C1.40432 91.7746 0.770277 91.7951 0.299855 91.7951C0.177137 91.7951 0.13623 91.6928 0.13623 91.4883C0.13623 91.3042 0.19759 91.2019 0.299855 91.2019C1.17934 91.0997 1.77248 90.9361 2.07928 90.7111C2.38607 90.4861 2.5497 90.0361 2.5497 89.3612V79.1551C2.5497 78.6437 2.48834 78.296 2.36562 78.0915C2.2429 77.887 2.01792 77.7233 1.69067 77.6006C1.36342 77.4779 0.913449 77.3756 0.299855 77.3143C0.177137 77.3143 0.13623 77.212 0.13623 77.0075C0.13623 76.8029 0.19759 76.7007 0.299855 76.7007C0.79073 76.7007 1.38387 76.7211 2.07928 76.762C2.75423 76.8029 3.30646 76.8234 3.75643 76.8234C4.2064 76.8234 4.77909 76.8029 5.49495 76.762C6.25171 76.7211 6.8653 76.7007 7.35618 76.7007C8.70609 76.7007 9.7901 77.0279 10.6287 77.662C11.4673 78.296 11.8763 79.1551 11.8763 80.1982C11.8763 80.9345 11.5695 81.6299 10.9559 82.2639C10.3423 82.898 9.58557 83.3275 8.68563 83.532C9.97418 83.7775 10.9764 84.2479 11.7536 84.9228C12.5308 85.5978 12.8581 86.4568 12.8581 87.3772ZM9.46285 80.2391C9.46285 79.2778 9.23787 78.5824 8.76744 78.1324C8.29702 77.6824 7.56071 77.4574 6.57896 77.4574H6.14945C5.24951 77.4574 4.77909 77.8461 4.77909 78.6233V83.3479H6.33352C7.43799 83.3479 8.23566 83.1025 8.72654 82.6116C9.21741 82.1208 9.46285 81.3435 9.46285 80.2391ZM10.4855 87.3772C10.4855 86.3341 10.1992 85.516 9.60602 84.9228C9.01288 84.3297 8.19476 84.0229 7.15165 84.0229H4.77909V89.3612C4.77909 90.0157 4.96317 90.4656 5.35177 90.7111C5.71993 90.9565 6.37443 91.0792 7.27437 91.0792C8.21521 91.0792 8.99243 90.7315 9.58557 90.0566C10.1787 89.3816 10.4855 88.4817 10.4855 87.3772Z" fill="#C9C9C9"/>
<path d="M33.618 91.4883C33.618 91.6928 33.5566 91.7951 33.4544 91.7951C33.1885 91.7951 32.759 91.7746 32.1454 91.7133C31.6954 91.6724 31.4091 91.6519 31.2659 91.6519C31.0614 91.6519 30.7341 91.6724 30.2841 91.7133C29.8342 91.7542 29.5069 91.7746 29.3024 91.7746L26.0094 86.4364C25.539 85.7001 25.1709 85.2296 24.8845 85.0047C24.5982 84.8001 24.0255 84.6979 23.1665 84.6979V89.3612C23.1665 89.852 23.2278 90.2202 23.3505 90.4247C23.4733 90.6293 23.6982 90.7929 24.0255 90.9156C24.3527 91.0383 24.8027 91.1201 25.4163 91.2019C25.539 91.2224 25.6004 91.3042 25.6004 91.4883C25.6004 91.6928 25.539 91.7951 25.4368 91.7951C24.9459 91.7951 24.3732 91.7746 23.6982 91.7337C23.0642 91.6928 22.512 91.6724 22.0824 91.6724C21.6325 91.6724 21.1007 91.6928 20.4666 91.7337C19.8121 91.7746 19.219 91.7951 18.7486 91.7951C18.6259 91.7951 18.585 91.6928 18.585 91.4883C18.585 91.3042 18.6463 91.2019 18.7486 91.2019C19.3417 91.1201 19.8121 91.0383 20.1189 90.9156C20.4462 90.7929 20.6507 90.6293 20.7939 90.4247C20.9166 90.2202 20.978 89.8725 20.978 89.3612V79.1551C20.978 78.6642 20.9166 78.296 20.7939 78.0915C20.6712 77.887 20.4462 77.7233 20.1394 77.6006C19.8326 77.4779 19.3622 77.3756 18.7486 77.3143C18.6259 77.3143 18.585 77.212 18.585 77.0075C18.585 76.8029 18.6463 76.7007 18.7486 76.7007C19.2395 76.7007 19.8121 76.7211 20.4666 76.762C21.1007 76.8029 21.6325 76.8234 22.0824 76.8234C22.5324 76.8234 23.0642 76.8029 23.6982 76.762C24.3732 76.7211 24.9459 76.7007 25.4368 76.7007C27.0526 76.7007 28.3002 77.0279 29.1797 77.7029C30.0592 78.3778 30.5091 79.3187 30.5091 80.5459C30.5091 81.3231 30.2228 82.0389 29.6296 82.6934C29.057 83.3479 28.2593 83.8593 27.2775 84.2274L30.6114 89.668C30.8977 90.1384 31.2659 90.4861 31.7363 90.7111C32.2067 90.9361 32.7794 91.0997 33.5157 91.1815C33.5771 91.2224 33.618 91.3247 33.618 91.4883ZM28.0957 80.6277C28.0957 78.521 27.1753 77.4574 25.3345 77.4574C24.7209 77.4574 24.2709 77.4984 23.9437 77.6006C23.6369 77.7029 23.4119 77.8461 23.3096 78.071C23.2074 78.2756 23.146 78.6437 23.146 79.1755V84.0229C23.5551 84.0843 24.0869 84.1047 24.7209 84.1047C25.8867 84.1047 26.7253 83.8388 27.2571 83.2866C27.8298 82.7139 28.0957 81.8344 28.0957 80.6277Z" fill="#C9C9C9"/>
<path d="M53.9892 91.4882C53.9892 91.6928 53.9279 91.795 53.8256 91.795C53.3347 91.795 52.7621 91.7746 52.128 91.7337C51.5758 91.6928 51.1258 91.6723 50.7372 91.6723C50.2872 91.6723 49.7554 91.6928 49.1009 91.7337C48.4055 91.7746 47.8329 91.795 47.342 91.795C47.2193 91.795 47.1784 91.6928 47.1784 91.4882C47.1784 91.2837 47.2193 91.1815 47.3011 91.1815C47.9351 91.161 48.4055 91.0587 48.6919 90.9156C48.9782 90.7724 49.1214 90.5474 49.1214 90.2611C49.1214 90.077 49.0396 89.7702 48.8964 89.3611L47.6692 85.7409H43.2104L41.9628 89.0952C41.7992 89.5452 41.7174 89.8929 41.7174 90.1383C41.7174 90.7724 42.3105 91.1201 43.4763 91.1815C43.5581 91.1815 43.5991 91.2837 43.5991 91.4882C43.5991 91.6928 43.5377 91.795 43.4354 91.795C43.0059 91.795 42.515 91.7746 42.0037 91.7337C41.5128 91.6928 41.0629 91.6723 40.6743 91.6723C40.3675 91.6723 39.9789 91.6928 39.5084 91.7337C39.0176 91.7746 38.6085 91.795 38.2608 91.795C38.1585 91.795 38.0972 91.7132 38.0972 91.5292C38.0972 91.3246 38.179 91.2224 38.3426 91.2019C38.9357 91.1405 39.4266 90.9769 39.7743 90.711C40.122 90.4451 40.4902 89.8725 40.8583 89.0339L45.9307 76.5779C45.9716 76.4552 46.0739 76.4143 46.2375 76.4143C46.4011 76.4143 46.5239 76.4757 46.5648 76.5779L51.044 89.0339C51.2894 89.7293 51.6371 90.2611 52.0666 90.5883C52.4962 90.9156 53.0688 91.1201 53.7847 91.2224C53.9279 91.2224 53.9892 91.3246 53.9892 91.4882ZM47.4238 85.066L45.5216 79.5436L43.4763 85.066H47.4238Z" fill="#C9C9C9"/>
<path d="M75.2807 84.3705C75.2807 86.5999 74.5444 88.3997 73.0513 89.7496C71.5583 91.12 69.5539 91.7949 67.0177 91.7949C66.6904 91.7949 66.0564 91.7745 65.0951 91.754C64.0929 91.7336 63.4384 91.7131 63.1111 91.7131C61.7612 91.7131 60.4522 91.7336 59.1841 91.7949C59.0614 91.7949 59.0205 91.6927 59.0205 91.4881C59.0205 91.3041 59.0819 91.2018 59.1841 91.2018C59.7773 91.12 60.2477 91.0382 60.5545 90.9155C60.8817 90.7927 61.0863 90.6291 61.2294 90.4246C61.3522 90.2201 61.4135 89.8723 61.4135 89.361V79.1958C61.4135 78.705 61.3522 78.3368 61.2294 78.1323C61.1067 77.9277 60.8817 77.7641 60.5749 77.6414C60.2681 77.5187 59.7977 77.4164 59.1841 77.355C59.0614 77.355 59.0205 77.2528 59.0205 77.0483C59.0205 76.8437 59.0819 76.7415 59.1841 76.7415C60.0227 76.8028 61.3317 76.8233 63.1111 76.8233C63.4384 76.8233 64.1133 76.8028 65.0951 76.7824C66.0564 76.7619 66.7109 76.7415 67.0177 76.7415C69.4925 76.7415 71.4765 77.4573 73.0104 78.8686C74.5035 80.3208 75.2807 82.1411 75.2807 84.3705ZM72.8877 84.3705C72.8877 82.407 72.3355 80.7707 71.2106 79.4617C70.0856 78.1527 68.6744 77.4982 66.9972 77.4982H66.9359L64.8906 77.5391C64.0315 77.5596 63.602 77.9891 63.602 78.8072V89.7905C63.602 90.6087 64.0315 91.0177 64.8906 91.0177L66.9359 91.0791C68.613 91.0791 70.0243 90.445 71.1901 89.1565C72.315 87.8884 72.8877 86.2931 72.8877 84.3705Z" fill="#C9C9C9"/>
<path d="M96 77.0279C96 77.1097 95.9796 77.1711 95.9182 77.2325C95.8773 77.2938 95.816 77.3143 95.7546 77.3143C95.0387 77.3961 94.507 77.5393 94.1388 77.7642C93.7707 77.9892 93.3411 78.4597 92.8503 79.1755L88.8005 85.0047V89.3612C88.8005 89.852 88.8414 90.1997 88.9233 90.4043C89.0051 90.6088 89.1891 90.7724 89.4959 90.8951C89.8027 91.0179 90.2527 91.1201 90.8663 91.2019C90.989 91.2224 91.0299 91.3042 91.0299 91.4883C91.0299 91.6928 90.9686 91.7951 90.8663 91.7951C90.3754 91.7951 89.8437 91.7746 89.2301 91.7337C88.6369 91.6928 88.1256 91.6724 87.6961 91.6724C87.2666 91.6724 86.7143 91.6928 86.0803 91.7337C85.4053 91.7746 84.8326 91.7951 84.3418 91.7951C84.219 91.7951 84.1781 91.6928 84.1781 91.4883C84.1781 91.3042 84.2395 91.2019 84.3418 91.2019C85.2212 91.0997 85.8144 90.9361 86.1212 90.7111C86.428 90.4861 86.5916 90.0361 86.5916 89.3612V85.066L82.8487 79.1755C82.3373 78.4392 81.8874 77.9688 81.4988 77.7642C81.1102 77.5393 80.5784 77.3961 79.9239 77.3347C79.8012 77.3347 79.7603 77.2325 79.7603 77.0279C79.7603 76.8234 79.8216 76.7211 79.9239 76.7211C80.2716 76.7211 80.7216 76.7416 81.3147 76.7825C81.9487 76.8234 82.4601 76.8439 82.8487 76.8439C83.2168 76.8439 83.7282 76.8234 84.3827 76.7825C85.1394 76.7416 85.7735 76.7211 86.2848 76.7211C86.4075 76.7211 86.4484 76.8234 86.4484 77.0279C86.4484 77.2325 86.3871 77.3347 86.2848 77.3347C85.344 77.4575 84.8735 77.7233 84.8735 78.071C84.8735 78.3574 85.0167 78.746 85.3235 79.196L88.4528 84.0843L91.7253 79.1755C91.9503 78.8278 92.073 78.5415 92.073 78.2756C92.073 78.0097 91.9503 77.7847 91.6844 77.6415C91.4185 77.4984 90.989 77.3961 90.3754 77.3143C90.2936 77.3143 90.2527 77.212 90.2527 77.0075C90.2527 76.8029 90.3141 76.7007 90.4163 76.7007C90.8459 76.7007 91.3572 76.7211 91.9708 76.762C92.5639 76.8029 93.0752 76.8234 93.4639 76.8234C93.832 76.8234 94.2206 76.8029 94.6297 76.762C95.0387 76.7211 95.4478 76.7007 95.816 76.7007C95.9387 76.7211 96 76.8234 96 77.0279Z" fill="#C9C9C9"/>
<path d="M4.39065 102.901C4.37019 103.228 4.22702 104.905 2.4476 104.905C0.60682 104.905 0.381836 103.29 0.381836 101.531C0.381836 99.424 0.99543 98.1968 2.50896 98.1968C4.22702 98.1968 4.34974 99.6694 4.39065 100.201H3.24527C3.22482 99.9762 3.22482 99.1785 2.48851 99.1785C1.7522 99.1785 1.56812 100.078 1.56812 101.551C1.56812 102.778 1.69084 103.924 2.4476 103.924C3.14301 103.924 3.20437 103.146 3.22482 102.881H4.39065V102.901Z" fill="#ED1F24"/>
<path d="M8.19474 103.167L7.86749 104.803H6.70166L8.21519 98.3196H9.72872L11.2423 104.803H10.0151L9.70827 103.167H8.19474ZM9.48328 102.165C9.23785 100.917 9.05377 100.017 8.9515 99.4036H8.93105C8.84924 99.9967 8.64471 100.978 8.39927 102.165H9.48328Z" fill="#ED1F24"/>
<path d="M13.7583 98.2991H15.7013C16.7854 98.2991 17.583 98.9331 17.583 100.242C17.583 101.49 16.8467 102.165 15.6195 102.165H14.9241V104.803H13.7583V98.2991ZM14.9241 101.224H15.4764C16.1309 101.224 16.3968 100.897 16.3968 100.222C16.3968 99.5672 16.0695 99.2399 15.5377 99.2399H14.9037V101.224H14.9241Z" fill="#ED1F24"/>
<path d="M21.4485 98.2991V104.783H20.2827V98.2991H21.4485Z" fill="#ED1F24"/>
<path d="M25.4167 99.3217H24.0259V98.2991H27.9733V99.3217H26.5825V104.803H25.4167V99.3217Z" fill="#ED1F24"/>
<path d="M30.9999 103.167L30.6727 104.803H29.5068L31.0204 98.3196H32.5339L34.0474 104.803H32.8202L32.5134 103.167H30.9999ZM32.2885 102.165C32.043 100.917 31.8589 100.017 31.7567 99.4036H31.7362C31.6544 99.9967 31.4499 100.978 31.2044 102.165H32.2885Z" fill="#ED1F24"/>
<path d="M36.5635 98.2991H37.7293V103.801H39.9587L39.836 104.783H36.5635V98.2991Z" fill="#ED1F24"/>
<path d="M47.1991 103.167L46.8719 104.803H45.7061L47.2196 98.3196H48.7331L50.2466 104.803H49.0195L48.7127 103.167H47.1991ZM48.4877 102.165C48.2422 100.917 48.0582 100.017 47.9559 99.4036H47.9354C47.8536 99.9967 47.6491 100.978 47.4037 102.165H48.4877Z" fill="#ED1F24"/>
<path d="M52.7622 98.2991H54.4598C56.137 98.2991 56.771 99.3831 56.771 101.408C56.771 103.596 56.1574 104.783 54.3576 104.783H52.7622V98.2991ZM53.928 103.842H54.3371C55.2575 103.842 55.5643 103.167 55.5643 101.408C55.5643 99.9149 55.2779 99.2604 54.3371 99.2604H53.928V103.842Z" fill="#ED1F24"/>
<path d="M60.6368 104.803L59.021 98.3196H60.2686L60.8618 101.081C61.0459 101.96 61.2299 102.922 61.3117 103.576H61.3322C61.414 102.922 61.639 101.96 61.8231 101.101L62.3958 98.3196H63.6229L61.9867 104.803H60.6368Z" fill="#ED1F24"/>
<path d="M67.3045 98.2991V104.783H66.1387V98.2991H67.3045Z" fill="#ED1F24"/>
<path d="M71.1903 102.983C71.2517 103.515 71.4766 103.985 72.0698 103.985C72.6425 103.985 72.847 103.637 72.847 103.146C72.847 102.615 72.5811 102.308 71.763 101.919C70.6585 101.388 70.2086 100.917 70.2086 99.9558C70.2086 98.9127 70.8835 98.2173 72.0493 98.2173C73.522 98.2173 73.8697 99.199 73.8901 100.058H72.7447C72.7243 99.6899 72.622 99.1377 72.0289 99.1377C71.5585 99.1377 71.3744 99.4445 71.3744 99.874C71.3744 100.344 71.5789 100.569 72.3357 100.917C73.5015 101.449 74.0333 101.981 74.0333 103.065C74.0333 104.087 73.3992 104.926 72.0289 104.926C70.5358 104.926 70.0858 103.965 70.0449 103.003H71.1903V102.983Z" fill="#ED1F24"/>
<path d="M80.8036 101.51C80.8036 103.883 80.1696 104.905 78.656 104.905C77.2652 104.905 76.5698 103.883 76.5698 101.49C76.5698 99.1581 77.3675 98.2173 78.6969 98.2173C80.1287 98.2173 80.8036 99.2604 80.8036 101.51ZM77.7766 101.49C77.7766 103.024 78.022 103.944 78.6969 103.944C79.4128 103.944 79.6173 103.106 79.6173 101.49C79.6173 99.9763 79.3924 99.199 78.6969 99.199C78.0015 99.1786 77.7766 100.038 77.7766 101.49Z" fill="#ED1F24"/>
<path d="M84.8329 102.022V104.783H83.6875V98.2991H85.6715C86.8577 98.2991 87.5122 98.9127 87.5122 100.078C87.5122 101.019 87.0009 101.428 86.6737 101.551C87.1645 101.797 87.41 102.206 87.41 103.167V103.433C87.41 104.169 87.4509 104.455 87.4918 104.803H86.3669C86.2646 104.496 86.2646 103.985 86.2646 103.433V103.208C86.2646 102.328 86.0601 102.042 85.3237 102.042H84.8329V102.022ZM84.8329 101.081H85.3851C86.0805 101.081 86.3669 100.774 86.3669 100.14C86.3669 99.5672 86.101 99.2399 85.5078 99.2399H84.8533V101.081H84.8329Z" fill="#ED1F24"/>
<path d="M91.2347 102.983C91.2961 103.515 91.5211 103.985 92.1142 103.985C92.6869 103.985 92.8914 103.637 92.8914 103.146C92.8914 102.615 92.6255 102.308 91.8074 101.919C90.703 101.388 90.253 100.917 90.253 99.9558C90.253 98.9127 90.9279 98.2173 92.0938 98.2173C93.5664 98.2173 93.9141 99.199 93.9345 100.058H92.7892C92.7687 99.6899 92.6664 99.1377 92.0733 99.1377C91.6029 99.1377 91.4188 99.4445 91.4188 99.874C91.4188 100.344 91.6233 100.569 92.3801 100.917C93.5459 101.449 94.0777 101.981 94.0777 103.065C94.0777 104.087 93.4437 104.926 92.0733 104.926C90.5802 104.926 90.1303 103.965 90.0894 103.003H91.2347V102.983Z" fill="#ED1F24"/>
</svg>
