<svg width="24" height="18" viewBox="0 0 24 18" fill="none" xmlns="http://www.w3.org/2000/svg">
<path opacity="0.5" d="M18.8026 17.8562C17.864 17.8562 17.0106 17.5896 16.2426 17.0562C15.496 16.5229 14.8986 15.7549 14.4506 14.7522C14.0026 13.7496 13.7786 12.5336 13.7786 11.1042C13.7786 9.24824 14.1626 7.49891 14.9306 5.85624C15.72 4.19224 16.8506 2.83757 18.3226 1.79224C19.816 0.746909 21.6186 0.224243 23.7306 0.224243V1.02424C22.216 1.02424 20.84 1.36558 19.6026 2.04824C18.3866 2.70957 17.3733 3.61624 16.5626 4.76824C15.7733 5.89891 15.2186 7.20024 14.8986 8.67224C14.6 10.1229 14.6106 11.6482 14.9306 13.2482H14.6426C14.5786 12.6509 14.728 12.0429 15.0906 11.4242C15.4746 10.8056 16.0186 10.2829 16.7226 9.85624C17.4266 9.42958 18.216 9.21624 19.0906 9.21624C20.6053 9.21624 21.736 9.64291 22.4826 10.4962C23.2293 11.3282 23.6026 12.3416 23.6026 13.5362C23.6026 14.3256 23.3893 15.0509 22.9626 15.7122C22.5573 16.3736 21.9813 16.8962 21.2346 17.2802C20.5093 17.6642 19.6986 17.8562 18.8026 17.8562ZM5.33063 17.8562C4.41329 17.8562 3.57064 17.5896 2.80264 17.0562C2.05598 16.5229 1.44797 15.7549 0.978638 14.7522C0.530638 13.7496 0.306641 12.5336 0.306641 11.1042C0.306641 9.24824 0.690649 7.49891 1.45865 5.85624C2.24798 4.19224 3.3893 2.83757 4.88263 1.79224C6.37596 0.746909 8.17862 0.224243 10.2906 0.224243V1.02424C8.75462 1.02424 7.37863 1.36558 6.16263 2.04824C4.94663 2.70957 3.93329 3.61624 3.12262 4.76824C2.31195 5.89891 1.74664 7.20024 1.42664 8.67224C1.12797 10.1229 1.13865 11.6482 1.45865 13.2482H1.17062C1.10662 12.6509 1.26663 12.0429 1.65063 11.4242C2.03463 10.8056 2.56797 10.2829 3.25064 9.85624C3.95464 9.42958 4.74395 9.21624 5.61862 9.21624C7.15462 9.21624 8.29597 9.64291 9.04263 10.4962C9.7893 11.3282 10.1626 12.3416 10.1626 13.5362C10.1626 14.3256 9.94931 15.0509 9.52264 15.7122C9.09598 16.3736 8.5093 16.8962 7.76263 17.2802C7.0373 17.6642 6.22663 17.8562 5.33063 17.8562Z" fill="#C9C9C9"/>
</svg>
